<?xml version="1.0" encoding="UTF-8"?>
<svg version="1.1" xmlns="http://www.w3.org/2000/svg" width="1024" height="1024">
<path d="M0 0 C337.92 0 675.84 0 1024 0 C1024 337.92 1024 675.84 1024 1024 C686.08 1024 348.16 1024 0 1024 C0 686.08 0 348.16 0 0 Z " fill="#FEFEFE" transform="translate(0,0)"/>
<path d="M0 0 C1.37838285 -0.00379701 2.75676186 -0.00930829 4.13513184 -0.01637268 C7.82697906 -0.03015581 11.51835137 -0.01928478 15.21017146 -0.00266147 C19.09678684 0.01133765 22.98337878 0.00471299 26.87001038 0.00120544 C33.38493382 -0.00148282 39.89967154 0.01186658 46.41455078 0.03515625 C53.9293616 0.06183574 61.44386379 0.06348314 68.95870584 0.05176789 C76.22188037 0.0409692 83.48494408 0.04718851 90.74810982 0.06132317 C93.82567552 0.067057 96.90315943 0.06702112 99.98072624 0.06225777 C103.60316698 0.05746559 107.22527172 0.06768144 110.84764862 0.08921242 C112.79972736 0.09737419 114.75185025 0.09095543 116.70393372 0.08401489 C126.41256499 0.16580374 133.38038782 1.56650775 140.48071289 8.50170898 C144.23116251 13.89469129 144.85197154 19.02082432 144.48071289 25.50170898 C142.60102455 32.57527302 138.88399239 36.63840324 132.76196289 40.44311523 C128.45939547 42.43968334 124.26168381 42.62647155 119.56932068 42.62628174 C117.79280876 42.63012627 117.79280876 42.63012627 115.98040771 42.63404846 C114.04394379 42.63089882 114.04394379 42.63089882 112.06835938 42.62768555 C110.68809451 42.62908135 109.30783007 42.63098133 107.92756653 42.63334656 C104.95871576 42.63783583 101.98987878 42.63969947 99.0210247 42.63980865 C94.31680196 42.64095239 89.61265711 42.65381693 84.90846252 42.66937256 C84.11310968 42.67194541 83.31775684 42.67451827 82.4983024 42.67716908 C80.87199332 42.68243559 79.2456843 42.68772107 77.61937535 42.69302511 C66.67299598 42.72806529 55.72671362 42.75469213 44.78027344 42.75219727 C37.38976599 42.75060344 29.99952495 42.76676697 22.60910279 42.80290389 C18.70408772 42.8212809 14.79951696 42.83077987 10.89446831 42.81842804 C7.21452764 42.8069011 3.53537918 42.81890229 -0.14445686 42.84806252 C-2.1197203 42.85775463 -4.09505775 42.84302956 -6.07028198 42.82725525 C-17.15622492 42.9547012 -27.92282898 46.10514352 -36.06616211 54.00170898 C-43.30436891 62.31489699 -45.30663619 74.64397829 -44.89819336 85.36889648 C-43.61117632 96.0100064 -39.65017998 103.34264062 -31.52319336 110.18139648 C-20.37257962 118.40625285 -8.0985582 119.0804012 5.20131302 119.01812935 C7.96351234 119.00529588 10.72474134 119.01697523 13.48690796 119.03416443 C18.36873265 119.06069667 23.25031318 119.06646741 28.13220215 119.06506348 C35.92047279 119.06282538 43.70843872 119.07758321 51.49659348 119.12064934 C54.18105766 119.13029641 56.86501709 119.12186956 59.54946899 119.11195374 C87.31689261 119.14580645 112.61731368 125.5055127 134.48071289 143.50170898 C135.34438477 144.21198242 136.20805664 144.92225586 137.09790039 145.65405273 C154.49424394 160.63875365 167.21109805 180.98765386 169.33056641 204.19091797 C171.06188569 230.83634408 165.72063741 257.54376454 147.67993164 278.12670898 C146.95418945 278.91045898 146.22844727 279.69420898 145.48071289 280.50170898 C144.8684082 281.18233398 144.25610352 281.86295898 143.62524414 282.56420898 C126.37588003 300.80660685 103.1020957 313.93727992 77.76595366 315.68945384 C74.94332767 315.76233646 72.12672639 315.77807599 69.30317688 315.76913452 C67.69883491 315.77593119 67.69883491 315.77593119 66.06208199 315.78286517 C62.50797714 315.79544143 58.95402686 315.79389322 55.39990234 315.79223633 C52.83986211 315.79822553 50.27982368 315.80503197 47.7197876 315.81259155 C41.50688137 315.82838527 35.29403099 315.83469778 29.08110658 315.83581631 C24.03042146 315.83676943 18.97974879 315.8408928 13.92906761 315.84721756 C-0.40851868 315.86480527 -14.74607515 315.87405946 -29.08367231 315.87255661 C-30.24059924 315.87243674 -30.24059924 315.87243674 -31.42089844 315.87231445 C-32.57924562 315.87219181 -32.57924562 315.87219181 -33.76099376 315.87206669 C-46.290303 315.87125288 -58.8194923 315.89042089 -71.34876683 315.91859119 C-84.23130362 315.94732628 -97.11378189 315.96113137 -109.99635154 315.95940363 C-117.22212891 315.9587403 -124.44778025 315.96420875 -131.67352867 315.98575974 C-138.46407184 316.00588443 -145.25430456 316.00529178 -152.0448761 315.99072647 C-154.5361552 315.98863317 -157.02745084 315.99337011 -159.51870155 316.00544739 C-162.92034919 316.02087027 -166.32107443 316.01161039 -169.72270203 315.9961853 C-170.70743348 316.00647243 -171.69216494 316.01675956 -172.70673674 316.02735841 C-179.42236493 315.96009622 -184.99159707 314.7704337 -190.04303092 310.08982217 C-195.07743735 304.40580985 -196.09716612 298.96755924 -195.96069336 291.57983398 C-195.14033105 285.85907736 -192.24550019 281.61232556 -187.70288086 278.09545898 C-183.22644843 275.38832922 -179.20516353 274.37748753 -174.05253792 274.37421703 C-173.15797485 274.37120938 -172.26341177 274.36820174 -171.34174073 274.36510295 C-169.87358172 274.3677285 -169.87358172 274.3677285 -168.37576294 274.3704071 C-167.3327502 274.36829139 -166.28973747 274.36617568 -165.21511829 274.36399585 C-161.70858728 274.35798875 -158.20209218 274.35899653 -154.69555664 274.35986328 C-152.18569375 274.35683215 -149.67583142 274.35331082 -147.16596985 274.34933472 C-141.75362167 274.34144006 -136.34128109 274.33627802 -130.92892838 274.33304405 C-122.36388422 274.32754086 -113.79887975 274.31063499 -105.2338562 274.29170227 C-102.30134017 274.28534533 -99.36882404 274.27903685 -96.43630791 274.27272511 C-95.7033812 274.27114134 -94.97045449 274.26955758 -94.21531788 274.26792582 C-85.87165684 274.24998837 -77.52799298 274.23376428 -69.18432617 274.21875 C-68.42167253 274.21737413 -67.65901888 274.21599826 -66.87325452 274.21458069 C-54.53513638 274.19268621 -42.19702849 274.1819032 -29.85889436 274.17437925 C-17.17765516 274.16629001 -4.49650342 274.14293886 8.18468583 274.10642558 C15.99744907 274.08447165 23.81003212 274.07471406 31.62282462 274.08092592 C37.6237141 274.08449485 43.62436151 274.0671405 49.6252079 274.04224777 C52.07685837 274.03535457 54.52853896 274.03518913 56.98018837 274.04244804 C78.31735733 274.09921557 96.21952592 271.61117614 112.48071289 256.50170898 C123.33535627 245.17419005 127.93574483 230.71587329 127.91455078 215.34594727 C127.63595553 202.65541355 123.49665001 192.40484808 115.48071289 182.50170898 C114.71758789 181.44983398 113.95446289 180.39795898 113.16821289 179.31420898 C101.69736917 167.30983764 86.3376757 161.82827285 70.03207397 161.31939697 C65.78746001 161.23627847 61.54336025 161.22407295 57.29802513 161.227314 C54.45703392 161.22829449 51.61640562 161.21515994 48.77546692 161.19833374 C40.70743557 161.15251831 32.63944644 161.12748288 24.57128906 161.12084961 C19.60887538 161.11579005 14.64684695 161.09132512 9.68456459 161.05552292 C7.81382896 161.0458346 5.94303963 161.04333181 4.07228661 161.04869461 C-22.42414215 161.12110895 -44.68461794 153.1864262 -64.24975586 134.79077148 C-70.33748448 128.65065277 -74.90855017 122.24124977 -78.83178711 114.56420898 C-79.15743652 113.93248779 -79.48308594 113.3007666 -79.81860352 112.64990234 C-84.61475767 102.8144193 -85.99195902 93.43667839 -85.83178711 82.56420898 C-85.83500977 81.47430664 -85.83823242 80.3844043 -85.84155273 79.26147461 C-85.69730154 57.19104239 -78.10030748 38.23256635 -62.58959961 22.36108398 C-53.29488014 13.38480028 -41.75588031 8.21316944 -29.51928711 4.50170898 C-28.46078269 4.17409041 -27.40227827 3.84647184 -26.31169796 3.50892544 C-17.39531819 0.92359965 -9.33689659 -0.0721022 0 0 Z " fill="#AD7E67" transform="translate(521.519287109375,464.498291015625)"/>
<path d="M0 0 C16.7589978 13.32769238 31.64107641 31.86371923 35.375 53.4375 C37.0846369 69.26945 37.15096131 84.82001468 32 100 C31.67257812 100.98226562 31.34515625 101.96453125 31.0078125 102.9765625 C22.99279002 124.21344689 8.08311178 143.17493661 -4.54595947 161.8494873 C-5.98024869 163.970788 -7.41297446 166.09313588 -8.84521484 168.21582031 C-13.71788056 175.43595697 -18.6021505 182.64805494 -23.50167847 189.84999084 C-25.99716303 193.51938492 -28.48096089 197.19636534 -30.95703125 200.87890625 C-32.09626424 202.56516493 -33.23557945 204.25136806 -34.375 205.9375 C-34.85590088 206.6579248 -35.33680176 207.37834961 -35.83227539 208.12060547 C-44.35184809 220.67592404 -44.35184809 220.67592404 -49 223 C-56.11766937 223.58341552 -56.11766937 223.58341552 -59.27148438 221.49804688 C-62.81810963 218.2509934 -65.21049297 214.61835818 -67.82421875 210.60546875 C-68.37052444 209.78105789 -68.91683014 208.95664703 -69.47969055 208.10725403 C-71.22331041 205.47231648 -72.95559384 202.83014783 -74.6875 200.1875 C-75.83192779 198.45327791 -76.97710348 196.71954911 -78.12304688 194.98632812 C-80.36817443 191.58866201 -82.60910094 188.1882863 -84.84667969 184.78564453 C-87.67155834 180.49306696 -90.51616217 176.21403818 -93.37109375 171.94140625 C-99.37204629 162.95658022 -105.28120009 153.91315874 -111.15576172 144.84521484 C-112.33985613 143.01844277 -113.52618825 141.19311811 -114.71533203 139.36962891 C-128.34087168 118.44833216 -140.43568682 97.24978094 -140.25 71.625 C-140.25773438 70.56539063 -140.26546875 69.50578125 -140.2734375 68.4140625 C-140.24882239 58.37109626 -139.0458747 49.16134252 -134.8125 40 C-134.35012939 38.97773315 -134.35012939 38.97773315 -133.87841797 37.93481445 C-122.34310293 13.05501067 -103.35465143 -3.29951287 -78.08203125 -12.7734375 C-51.76733623 -21.29489005 -22.49116371 -15.49909209 0 0 Z " fill="#AD7E67" transform="translate(697,222)"/>
<path d="M0 0 C4.87220928 3.43113329 8.50048962 6.86582457 11.84375 11.8125 C12.23691406 12.3887915 12.63007812 12.96508301 13.03515625 13.55883789 C20.29196455 24.45474008 22.07839609 37.17925718 19.53515625 50.01171875 C15.80275017 63.09837077 8.669011 74.49909494 -3.34375 81.4375 C-16.20738507 87.94789122 -29.01314519 89.51270176 -43.0078125 85.52734375 C-54.86513838 81.40233038 -64.92906927 72.67980885 -70.78125 61.5625 C-77.09550506 48.2842916 -76.9839999 34.19122306 -72.15625 20.4375 C-67.31559081 9.30934253 -57.90821438 0.43174208 -46.92578125 -4.59375 C-30.47163039 -11.06751427 -14.97296024 -9.43501604 0 0 Z " fill="#FEFEFE" transform="translate(672.78125,254.4375)"/>
</svg>
