<?xml version="1.0" encoding="UTF-8"?>
<svg version="1.1" xmlns="http://www.w3.org/2000/svg" width="1024" height="1024">
<path d="M0 0 C337.92 0 675.84 0 1024 0 C1024 337.92 1024 675.84 1024 1024 C686.08 1024 348.16 1024 0 1024 C0 686.08 0 348.16 0 0 Z " fill="#FEFEFE" transform="translate(0,0)"/>
<path d="M0 0 C1.42023342 -0.00463629 2.84046562 -0.00966202 4.26069641 -0.01504517 C8.10221741 -0.02809886 11.94372099 -0.03460109 15.78526068 -0.03905582 C18.19423622 -0.04199982 20.60320714 -0.04610719 23.01218033 -0.05056 C30.57485901 -0.06422055 38.13752697 -0.07389251 45.70021713 -0.07776189 C54.38168342 -0.08222993 63.06299127 -0.09972537 71.74440944 -0.12876248 C78.4853515 -0.150513 85.22624944 -0.16047335 91.96722615 -0.16180301 C95.97850672 -0.16284214 99.9896381 -0.16855594 104.0008812 -0.18662262 C140.95040851 -0.34344037 172.82779289 5.35782132 200.07080078 31.91113281 C214.65499498 46.72821784 224.06779696 64.98952236 228.88330078 85.16113281 C229.09470703 85.92683594 229.30611328 86.69253906 229.52392578 87.48144531 C235.24791236 108.33311072 232.41506113 131.09823073 221.87548828 149.84082031 C211.10141292 167.96902018 194.42596047 179.84760271 174.31689453 185.93847656 C166.39592656 187.82573328 158.28644237 188.31028312 150.17077637 188.30830383 C149.34203648 188.31198052 148.51329659 188.31565721 147.65944338 188.31944531 C144.90788413 188.33037741 142.15636276 188.334308 139.40478516 188.33813477 C137.4212126 188.34440736 135.4376412 188.35105486 133.45407104 188.35804749 C126.96173913 188.37899645 120.46940724 188.38944165 113.97705078 188.39941406 C111.73344409 188.40346512 109.48983753 188.40758214 107.24623108 188.41176414 C96.70152753 188.4307961 86.15683088 188.44503101 75.61211348 188.45337611 C63.4786826 188.46313967 51.34543458 188.48944474 39.21206808 188.52987701 C29.80787557 188.56012927 20.40373522 188.57485362 10.99949503 188.57815713 C5.3947781 188.58049724 -0.20974304 188.58932187 -5.81440735 188.6146183 C-11.09390432 188.63806394 -16.37307886 188.64206655 -21.65261459 188.63185692 C-23.57733616 188.63136543 -25.50207452 188.63756986 -27.42674637 188.65141296 C-42.53301324 188.75388031 -57.67750521 187.67509619 -71.05419922 179.91113281 C-71.75818848 179.51692139 -72.46217773 179.12270996 -73.1875 178.71655273 C-91.40666723 168.27293846 -103.45012358 152.04502041 -109.55419922 131.97363281 C-113.7441394 115.0541133 -112.59488173 95.63737124 -107.11669922 79.16113281 C-106.90239258 78.49082031 -106.68808594 77.82050781 -106.46728516 77.12988281 C-97.38806356 49.21821466 -78.11660684 25.61009525 -52.09179688 11.82250977 C-44.66520971 8.04514785 -37.17862677 5.31325754 -29.11669922 3.16113281 C-27.85857422 2.76925781 -26.60044922 2.37738281 -25.30419922 1.97363281 C-16.94378045 -0.15745433 -8.57589189 0.00727629 0 0 Z " fill="#AF7F62" transform="translate(452.11669921875,528.8388671875)"/>
<path d="M0 0 C1.8125783 1.55935045 3.60359625 3.14402907 5.375 4.75 C5.86742187 5.19327637 6.35984375 5.63655273 6.8671875 6.09326172 C14.93382584 13.44587973 21.00018344 21.27137061 26.375 30.75 C26.73078125 31.3579541 27.0865625 31.9659082 27.453125 32.59228516 C40.23205466 54.69497193 43.75884786 82.5337932 37.14624023 107.27514648 C35.35282772 113.30753405 33.05971053 119.06565688 30.375 124.75 C29.94574219 125.72195313 29.51648438 126.69390625 29.07421875 127.6953125 C17.84987507 151.91460055 -3.54734777 169.65282687 -28.25 178.9375 C-53.63374588 187.766629 -82.63576171 186.15824166 -106.8359375 174.6640625 C-116.92135448 169.66493614 -125.54214884 163.60314314 -133.625 155.75 C-134.23730469 155.19957031 -134.84960938 154.64914062 -135.48046875 154.08203125 C-153.5718478 137.31542138 -163.6631004 110.4465839 -164.9140625 86.2578125 C-165.75336546 58.00332165 -155.28172382 30.69520772 -135.8828125 10.046875 C-135.13773437 9.28890625 -134.39265625 8.5309375 -133.625 7.75 C-132.96242188 7.07453125 -132.29984375 6.3990625 -131.6171875 5.703125 C-96.20479651 -27.95884362 -38.06437794 -30.07085857 0 0 Z " fill="#B07F62" transform="translate(574.625,310.25)"/>
<path d="M0 0 C1.36171327 -0.00600164 2.72342318 -0.01281087 4.08512878 -0.02035522 C7.74875168 -0.037859 11.41228088 -0.042704 15.07594156 -0.0439868 C17.37572965 -0.04541821 19.67549465 -0.04970637 21.97527695 -0.05498123 C30.02959427 -0.07343187 38.08384584 -0.08165835 46.13818359 -0.08007812 C53.59538989 -0.078879 61.05230572 -0.09994909 68.50943863 -0.13156545 C74.95323428 -0.15789247 81.39693603 -0.16843856 87.84078491 -0.16716731 C91.6709601 -0.16666234 95.50087682 -0.17208246 99.33099747 -0.19352341 C126.01485985 -0.33235286 149.08652739 0.88232045 169.28466797 20.53271484 C183.65041567 35.67237488 189.7552741 54.24092604 189.31201172 74.92724609 C188.77630697 85.02186356 184.42360995 92.98901797 177.44482422 100.13037109 C169.07102416 107.469058 160.47718953 110.60240433 149.42962646 110.55795288 C148.17660449 110.56474955 148.17660449 110.56474955 146.89826894 110.57168353 C144.11262358 110.58429493 141.32717456 110.58270926 138.54150391 110.58105469 C136.5386378 110.58704201 134.53577399 110.59384802 132.53291321 110.60140991 C127.10093182 110.61905723 121.66901347 110.62376479 116.23700619 110.62504148 C112.84028152 110.62646446 109.44357281 110.63073685 106.04685211 110.63603592 C94.18812546 110.6545326 82.32944373 110.66270706 70.47070312 110.66113281 C59.43089063 110.65993179 48.39127377 110.68102741 37.35151076 110.71262014 C27.86167031 110.73880596 18.37189366 110.74949912 8.88201737 110.74822199 C3.21934774 110.74771301 -2.44314803 110.75336135 -8.10578156 110.77457809 C-13.43449423 110.79399901 -18.76286788 110.79405848 -24.09159279 110.77954483 C-26.04140279 110.77746037 -27.99123423 110.78213588 -29.94100761 110.79426575 C-44.23677145 110.87740387 -55.15860818 109.98883213 -65.91796875 99.71069336 C-74.59592807 91.06821801 -76.99189229 80.82328786 -77.33251953 68.91552734 C-77.20960973 62.35521662 -76.00726036 56.52579715 -74.02001953 50.29052734 C-73.69130859 49.23994141 -73.36259766 48.18935547 -73.02392578 47.10693359 C-67.02168724 29.80636367 -54.90918031 16.2526402 -39.02001953 7.29052734 C-26.36047137 1.26653945 -13.87430137 -0.01008417 0 0 Z " fill="#FEFEFE" transform="translate(456.02001953125,567.70947265625)"/>
<path d="M0 0 C13.56790105 10.00877918 25.09483494 25.34776278 27.75390625 42.2890625 C29.42356339 60.68179358 26.1432855 78.43320857 14.60546875 93.2109375 C3.60274058 105.85974311 -11.1032224 114.75438966 -28.01464844 116.16845703 C-46.33560063 117.18534221 -62.81264066 113.03735124 -76.9621582 101.06884766 C-89.70490412 89.6228314 -96.89116095 73.83489949 -98.25390625 56.83203125 C-98.88635833 38.77654434 -92.83365164 23.49811517 -81 10 C-80.44441406 9.360625 -79.88882812 8.72125 -79.31640625 8.0625 C-59.208335 -13.54041588 -24.1578435 -15.81341725 0 0 Z " fill="#FEFEFE" transform="translate(547,339)"/>
<path d="M0 0 C0.66 0.33 1.32 0.66 2 1 C0.61240749 2.61130023 -0.78545623 4.21375841 -2.1875 5.8125 C-2.96480469 6.70582031 -3.74210937 7.59914063 -4.54296875 8.51953125 C-6.89417119 10.8931617 -9.06791184 12.43240047 -12 14 C-10.41332422 10.09714233 -7.86649519 7.66479018 -4.875 4.75 C-3.96492188 3.85796875 -3.05484375 2.9659375 -2.1171875 2.046875 C-1.41851562 1.37140625 -0.71984375 0.6959375 0 0 Z " fill="#A66F4E" transform="translate(380,554)"/>
</svg>
