<?xml version="1.0" encoding="UTF-8"?>
<svg version="1.1" xmlns="http://www.w3.org/2000/svg" width="1024" height="1024">
<path d="M0 0 C337.92 0 675.84 0 1024 0 C1024 337.92 1024 675.84 1024 1024 C686.08 1024 348.16 1024 0 1024 C0 686.08 0 348.16 0 0 Z " fill="#FEFEFE" transform="translate(0,0)"/>
<path d="M0 0 C4.54056606 1.46498573 9.10855281 2.82025513 13.69587708 4.13134766 C23.14056151 6.83425514 32.55366034 9.64091849 41.96142578 12.46923828 C43.26913797 12.86207442 44.57686228 13.25487023 45.88459778 13.64762878 C47.93182253 14.26250636 49.97903155 14.87743604 52.02618504 15.49255085 C56.83063815 16.93612586 61.63573137 18.37755409 66.44116211 19.81787109 C72.56659634 21.65392271 78.69117171 23.49281255 84.81494617 25.33439255 C88.27056854 26.37348931 91.7265632 27.41131485 95.18334961 28.4465332 C98.62933928 29.47857194 102.07436983 30.51375689 105.51877785 31.55106163 C107.41175605 32.12030369 109.3056765 32.68640945 111.19963074 33.25239563 C128.98551159 38.61795272 143.9680713 44.24902799 153.22827148 61.50805664 C158.80779432 72.33112788 159.57823844 82.21735952 159.54243469 94.24923706 C159.54546016 95.63525031 159.54935162 97.02126189 159.55402726 98.40727055 C159.56426501 102.19246761 159.56213628 105.97756951 159.55784667 109.76277423 C159.55537174 113.85421936 159.56440308 117.94564204 159.57188416 122.03707886 C159.5846118 130.04352021 159.58642727 138.04992799 159.58408389 146.05637775 C159.58229846 152.56633779 159.58405521 159.07628767 159.58830833 165.58624649 C159.58890352 166.51394829 159.58949871 167.4416501 159.59011194 168.39746407 C159.59132373 170.28229196 159.59253786 172.16711984 159.59375431 174.05194773 C159.60462234 191.71457083 159.60247082 209.37717482 159.59636947 227.03979899 C159.59120062 243.18446364 159.60245622 259.32906794 159.62146769 275.47372065 C159.6408573 292.06720298 159.64910014 308.66065678 159.64534444 325.25415051 C159.64343414 334.56366851 159.64590324 343.87313515 159.66005898 353.18264389 C159.67198803 361.10770564 159.67336055 369.03268441 159.66126881 376.95774733 C159.65539091 380.99773898 159.65425042 385.03757898 159.66627121 389.07756042 C159.67716641 392.78243285 159.67398387 396.48702764 159.66000953 400.19188727 C159.65613212 402.15295074 159.66687987 404.11402671 159.6783064 406.07506073 C159.5923181 420.25199653 156.40937405 433.25265766 146.40673828 443.74658203 C136.41838399 452.97967323 125.96448913 455.97264611 112.41821289 455.6862793 C105.36518952 455.31233326 98.77853773 453.06644842 92.09423828 450.93408203 C90.59361528 450.47260153 89.09246436 450.01283464 87.59082031 449.5546875 C83.14477817 448.19029739 78.71170595 446.78718057 74.28173828 445.37158203 C73.07791504 444.98760254 71.8740918 444.60362305 70.63378906 444.20800781 C66.18064886 442.78153594 61.7304711 441.34638278 57.28442383 439.89794922 C45.70702475 436.14013769 34.05185598 432.65370679 22.38256836 429.19360352 C13.89718391 426.67414396 5.42671447 424.11835185 -3.01574707 421.45802307 C-7.20492538 420.1380035 -11.39779383 418.8298995 -15.59063721 417.52157593 C-17.61777233 416.88502587 -19.64301027 416.24239908 -21.66619873 415.59341431 C-24.50050776 414.6848082 -27.34079411 413.79774939 -30.18310547 412.91455078 C-31.01584488 412.64125946 -31.84858429 412.36796814 -32.70655823 412.08639526 C-41.79106755 409.3119275 -48.97814901 411.10870518 -57.65185547 414.43408203 C-58.89117577 414.89445862 -58.89117577 414.89445862 -60.15553284 415.36413574 C-61.9149927 416.01885104 -63.6727718 416.67809857 -65.42895508 417.34155273 C-70.05832396 419.09025963 -74.69988426 420.80615108 -79.33935547 422.52783203 C-80.2518808 422.86762085 -81.16440613 423.20740967 -82.10458374 423.55749512 C-88.94252711 426.09972664 -95.80910476 428.52898488 -102.71826172 430.87158203 C-110.58817289 433.54530426 -118.40418323 436.34071091 -126.20263672 439.21533203 C-127.12798218 439.55608765 -128.05332764 439.89684326 -129.00671387 440.2479248 C-133.65308486 441.96038063 -138.2966985 443.67988974 -142.93701172 445.40869141 C-144.6504975 446.04230611 -146.36403679 446.67577613 -148.07763672 447.30908203 C-148.86088318 447.6034314 -149.64412964 447.89778076 -150.45111084 448.2010498 C-161.69831598 452.3421542 -172.98460207 452.69041052 -184.52294922 449.50048828 C-185.71066673 449.17962502 -185.71066673 449.17962502 -186.92237854 448.85227966 C-200.00649182 445.25832687 -212.9890138 441.29095012 -225.97241211 437.35180664 C-229.88789878 436.16445878 -233.80727626 434.99052317 -237.72766781 433.81948948 C-240.79369898 432.90102993 -243.85670674 431.97278598 -246.91900826 431.04197502 C-248.3621497 430.60509464 -249.80635937 430.17172408 -251.25172234 429.74225044 C-269.59558839 424.28242371 -283.24634338 417.59091184 -292.71826172 400.37158203 C-295.750139 394.43044016 -296.84177449 389.01190354 -296.84968948 382.36504841 C-296.85353063 381.15252189 -296.85737177 379.93999537 -296.86132932 378.69072562 C-296.86054913 377.34852996 -296.85967036 376.00633434 -296.85870361 374.66413879 C-296.86128815 373.2356439 -296.86430156 371.80714974 -296.86770701 370.37865657 C-296.87576989 366.4529097 -296.87756619 362.52718112 -296.87830448 358.60142696 C-296.88015628 354.36746854 -296.88770426 350.13351959 -296.8944397 345.89956665 C-296.90801851 336.6412234 -296.91404704 327.38288449 -296.91845036 318.12453294 C-296.92121356 312.34282925 -296.92545105 306.56112723 -296.92995453 300.77942467 C-296.94214663 284.76945126 -296.95244605 268.75947918 -296.95582962 252.74950123 C-296.95604919 251.72493135 -296.95626875 250.70036147 -296.95649497 249.64474402 C-296.95671325 248.61773216 -296.95693153 247.5907203 -296.95715642 246.53258687 C-296.95759988 244.45149346 -296.95804645 242.37040005 -296.95849609 240.28930664 C-296.95871752 239.25701393 -296.95893895 238.22472121 -296.95916709 237.1611469 C-296.96311472 220.43606309 -296.98056791 203.71102285 -297.00385562 186.98595587 C-297.02757544 169.81181909 -297.04003176 152.63770417 -297.04119754 135.46355075 C-297.04211395 125.82202353 -297.04785765 116.18055309 -297.06601715 106.53904152 C-297.08142664 98.32871089 -297.08653358 90.1184546 -297.07827905 81.90811227 C-297.07437555 77.72055663 -297.07528744 73.53315065 -297.0893364 69.34561348 C-297.10209327 65.50804202 -297.10086225 61.67073239 -297.08874568 57.8331612 C-297.08586996 55.79581547 -297.09771089 53.75846514 -297.11016774 51.72115546 C-297.03876625 38.44205715 -293.6314743 27.55161614 -284.53076172 17.62158203 C-275.77131144 9.460244 -265.27666048 6.05952275 -253.46728516 6.16162109 C-247.5121698 6.61645228 -241.71542701 8.10457209 -235.90576172 9.43408203 C-234.49130702 9.75059246 -233.07675463 10.06666658 -231.66210938 10.38232422 C-221.15987834 12.74283161 -210.70655514 15.29199996 -200.28149414 17.97338867 C-197.09778308 18.7902923 -193.91029629 19.58784514 -190.71826172 20.37158203 C-189.55456055 20.65839844 -188.39085937 20.94521484 -187.19189453 21.24072266 C-186.00692383 21.5159375 -184.82195312 21.79115234 -183.60107422 22.07470703 C-182.54549316 22.32381836 -181.48991211 22.57292969 -180.40234375 22.82958984 C-169.96571045 24.36499912 -161.59739215 22.58569844 -151.60107422 19.42626953 C-150.25505649 19.01326118 -148.9085998 18.60168105 -147.56173706 18.19143677 C-144.03112697 17.11219946 -140.50632122 16.01514158 -136.98260498 14.91363525 C-133.46521399 13.81690289 -129.94329372 12.73495761 -126.42138672 11.65283203 C-125.03703431 11.22737487 -123.6526908 10.80188878 -122.26835632 10.37637329 C-121.58937475 10.16768238 -120.91039318 9.95899147 -120.21083641 9.74397659 C-118.17087897 9.11601815 -116.13166528 8.4856947 -114.09260559 7.85482788 C-105.59535172 5.22938926 -97.07311162 2.71823196 -88.51051331 0.31500244 C-83.81377364 -1.00879123 -79.16683862 -2.42539961 -74.53466797 -3.96435547 C-46.60069083 -13.21414622 -27.1832077 -8.79808766 0 0 Z " fill="#B07E60" transform="translate(580.71826171875,295.62841796875)"/>
<path d="M0 0 C10.07120152 2.51780038 19.97132071 5.09050938 29.875 8.125 C32.50200715 8.92254762 35.12993358 9.71704902 37.7578125 10.51171875 C38.43086426 10.71561722 39.10391602 10.91951569 39.79736328 11.1295929 C47.43587855 13.44091751 55.09229883 15.69072639 62.75 17.9375 C64.17790428 18.35682788 65.60580139 18.77618019 67.03369141 19.19555664 C71.3555392 20.46457439 75.67773648 21.73239905 80 23 C82.88545473 23.84622447 85.7708774 24.69255804 88.65625 25.5390625 C89.7249231 25.85256905 89.7249231 25.85256905 90.81518555 26.17240906 C96.45736018 27.82829073 102.09727618 29.49176938 107.73657227 31.15742493 C111.97432044 32.40760168 116.21588974 33.64377474 120.46051025 34.8704071 C123.23371974 35.67364286 126.00446987 36.485138 128.77478027 37.29830933 C130.69316965 37.85840765 132.61461523 38.40800486 134.53613281 38.95727539 C148.84467891 43.17521189 148.84467891 43.17521189 152.8125 50.0625 C153.21082031 50.73410156 153.60914063 51.40570313 154.01953125 52.09765625 C155.87279771 55.69343619 156.12712485 58.55271918 156.13422108 62.53455734 C156.13867892 63.69270093 156.14313676 64.85084451 156.14772969 66.04408336 C156.14754533 67.32236483 156.14736097 68.6006463 156.14717102 69.91766357 C156.15046984 71.28469868 156.15419545 72.6517328 156.1583125 74.01876569 C156.16833845 77.78379733 156.17205024 81.54881303 156.17470181 85.31385612 C156.17860306 89.3712418 156.18818148 93.42861482 156.19691467 97.48599243 C156.21668344 107.28834251 156.2267455 117.09069363 156.23564246 126.89305866 C156.24002441 131.50753591 156.24539143 136.122012 156.25063133 140.73648834 C156.2676435 156.07298418 156.28213837 171.4094793 156.28938007 186.74598312 C156.29129001 190.72648876 156.29321034 194.70699439 156.29516602 198.6875 C156.29564976 199.67685143 156.2961335 200.66620285 156.2966319 201.68553463 C156.30493481 217.71763626 156.33027619 233.74966334 156.36274669 249.78173241 C156.39580099 266.23597326 156.41382733 282.6901762 156.41702431 299.14445043 C156.41919085 308.38519364 156.42796051 317.62582811 156.45348549 326.866539 C156.47517018 334.73519576 156.4832539 342.60371738 156.47351871 350.47240064 C156.46896759 354.48747266 156.47090709 358.50226572 156.49028015 362.51729965 C156.50786702 366.19387929 156.50695098 369.86997551 156.49138286 373.54655996 C156.48787214 375.50470937 156.50406646 377.46286358 156.52098733 379.42094302 C156.47163486 386.14192723 156.17453117 390.60837196 152 396 C147.4726444 399.01823707 143.3117296 398.49758199 138 398 C133.79277839 397.08349055 129.76530085 395.74912501 125.6875 394.375 C123.80977734 393.76775082 121.93200844 393.16063833 120.05322266 392.5566864 C118.67504144 392.11325494 117.29745351 391.66797607 115.92041016 391.22102356 C106.94696936 388.31453998 97.91762036 385.59026127 88.89157104 382.85256958 C85.87783604 381.93836031 82.86476171 381.02200066 79.85180664 380.10522461 C68.04945104 376.51660457 56.23531787 372.97240158 44.40161133 369.48852539 C38.77348748 367.82977215 33.15886537 366.13787707 27.5625 364.375 C18.40137772 361.49795333 9.1973051 358.75919153 0 356 C0 238.52 0 121.04 0 0 Z " fill="#FEFEFE" transform="translate(553,321)"/>
<path d="M0 0 C0 117.48 0 234.96 0 356 C-8.45474611 359.25182543 -16.90803067 362.45996795 -25.421875 365.546875 C-26.56497131 365.9623761 -27.70806763 366.3778772 -28.88580322 366.80596924 C-31.29231528 367.68045773 -33.69903594 368.55437233 -36.10595703 369.42773438 C-39.69998865 370.73185305 -43.29341343 372.03763161 -46.88671875 373.34375 C-49.25256833 374.20322365 -51.61845272 375.06260148 -53.984375 375.921875 C-55.01761902 376.29721375 -56.05086304 376.67255249 -57.11541748 377.05926514 C-69.06866916 381.39602772 -81.03588321 385.69291796 -93 390 C-93 270.21 -93 150.42 -93 27 C-63.53309561 18.26906537 -63.53309561 18.26906537 -50.625 14.5625 C-38.73177148 11.13168802 -26.89629998 7.53764157 -15.08642578 3.83032227 C-13.95060059 3.47381592 -12.81477539 3.11730957 -11.64453125 2.75 C-10.64784424 2.43546875 -9.65115723 2.1209375 -8.62426758 1.796875 C-2.70680147 0 -2.70680147 0 0 0 Z " fill="#FEFEFE" transform="translate(520,321)"/>
<path d="M0 0 C6.48815146 0.85698072 12.7936569 2.40551954 19.13183594 3.99267578 C20.61975968 4.35586944 22.10796441 4.71791372 23.59643555 5.07885742 C26.64184712 5.81904244 29.68549727 6.56593306 32.72802734 7.31787109 C37.1107228 8.39847133 41.50084646 9.44582988 45.89355469 10.48486328 C47.24466271 10.80560309 48.59573772 11.12648196 49.94677734 11.44750977 C52.49177694 12.05223196 55.03701753 12.655941 57.58251953 13.25854492 C59.27948975 13.66641235 59.27948975 13.66641235 61.01074219 14.08251953 C62.00404541 14.31962646 62.99734863 14.5567334 64.02075195 14.80102539 C66.25683594 15.43017578 66.25683594 15.43017578 67.25683594 16.43017578 C67.35451966 18.3484344 67.38054907 20.27035033 67.37988377 22.1910944 C67.38187481 23.45059125 67.38386586 24.7100881 67.38591725 26.00775152 C67.38306365 27.42362998 67.38011804 28.83950826 67.37709045 30.25538635 C67.37752602 31.74530253 67.37840067 33.23521863 67.37967962 34.72513431 C67.38192737 38.8388528 67.3778995 42.9525455 67.37290156 47.0662607 C67.36860123 51.49505069 67.37004318 55.92383912 67.37080383 60.35263062 C67.37132934 68.03230194 67.36817981 75.71196479 67.36256599 83.39163399 C67.35445452 94.49527992 67.35183614 105.59892174 67.350578 116.70257031 C67.34838693 134.71553422 67.34172534 152.72849362 67.33227539 170.74145508 C67.32310271 188.24405901 67.31602117 205.74666173 67.31176758 223.24926758 C67.31150485 224.32731026 67.31124213 225.40535294 67.31097145 226.51606358 C67.30966645 231.92404266 67.30840273 237.33202175 67.30715954 242.74000084 C67.2967852 287.63672895 67.27916538 332.53345213 67.25683594 377.43017578 C65.84765691 377.12414683 64.43891375 376.8161105 63.03034973 376.50726318 C62.24580823 376.33594753 61.46126673 376.16463188 60.65295124 375.98812485 C56.82868704 375.09762319 53.08578233 373.96493413 49.33105469 372.82080078 C48.08954399 372.44686188 48.08954399 372.44686188 46.82295227 372.06536865 C44.19581518 371.27335195 41.57005145 370.47689109 38.94433594 369.68017578 C36.36953695 368.90245557 33.79446558 368.12564514 31.2192688 367.34924316 C29.50186647 366.83020312 27.78512801 366.30896136 26.06906128 365.78552246 C21.64162287 364.43719783 17.20799879 363.12655195 12.75146484 361.87744141 C11.40590263 361.49335114 11.40590263 361.49335114 10.03315735 361.10150146 C8.33563362 360.61810034 6.63507713 360.14516719 4.93107605 359.68511963 C-2.43401383 357.56673354 -8.03153739 354.6790647 -11.87469918 347.76685798 C-13.76894021 342.6702336 -13.29198706 337.12513001 -13.25782776 331.75901794 C-13.26315631 330.35893795 -13.27022378 328.95886369 -13.27887481 327.55880028 C-13.29748797 323.72094249 -13.29120195 319.88347093 -13.28072178 316.0455972 C-13.27372609 311.90306503 -13.28973037 307.7606119 -13.30271912 303.61810303 C-13.32435709 295.50695165 -13.32423294 287.39594058 -13.31609357 279.28476983 C-13.30979359 272.69315473 -13.31093058 266.10158056 -13.31736565 259.5099659 C-13.3182673 258.5717992 -13.31916896 257.63363251 -13.32009793 256.66703652 C-13.32194913 254.76117864 -13.32381169 252.85532076 -13.32568549 250.9494629 C-13.34226281 233.07956451 -13.33354485 215.20974509 -13.31669991 197.33985145 C-13.30199826 180.98720209 -13.31663803 164.63473639 -13.34547008 148.28211068 C-13.37485297 131.49211579 -13.3858399 114.70220569 -13.37628788 97.91218621 C-13.37526532 96.01364745 -13.37427071 94.11510868 -13.37330437 92.2165699 C-13.37258978 90.81538361 -13.37258978 90.81538361 -13.37186076 89.38589052 C-13.36969542 82.8012334 -13.37950689 76.21665647 -13.39407539 69.63201714 C-13.41157887 61.60894104 -13.41150977 53.58609925 -13.38872374 45.56303244 C-13.37756422 41.46903323 -13.37445746 37.37544713 -13.39302444 33.28146553 C-13.40980122 29.53404957 -13.40351734 25.78740793 -13.37880766 22.04004241 C-13.3715958 20.04159047 -13.38897973 18.04309659 -13.40721899 16.04471487 C-13.30589289 6.35015982 -13.30589289 6.35015982 -10.34992886 2.62811375 C-6.63784389 -0.50179368 -4.67421907 -0.26783447 0 0 Z " fill="#FDFDFD" transform="translate(327.7431640625,333.56982421875)"/>
<path d="M0 0 C-0.68707031 0.39832031 -1.37414062 0.79664063 -2.08203125 1.20703125 C-2.98308594 1.73683594 -3.88414062 2.26664062 -4.8125 2.8125 C-5.70582031 3.33457031 -6.59914063 3.85664063 -7.51953125 4.39453125 C-9.98801278 5.86940652 -9.98801278 5.86940652 -11.69921875 7.69921875 C-12.12847656 8.12847656 -12.55773437 8.55773437 -13 9 C-13.66 9 -14.32 9 -15 9 C-15.2475 9.61875 -15.495 10.2375 -15.75 10.875 C-17.20628639 13.35068687 -18.37812506 13.95125002 -21 15 C-17.41781321 8.47245962 -8.21072326 -2.73690775 0 0 Z " fill="#A8714F" transform="translate(312,306)"/>
</svg>
